<?xml version="1.0" standalone="no"?>
<!DOCTYPE svg PUBLIC "-//W3C//DTD SVG 20010904//EN"
 "http://www.w3.org/TR/2001/REC-SVG-20010904/DTD/svg10.dtd">
<svg version="1.0" xmlns="http://www.w3.org/2000/svg"
 width="1200.000000pt" height="1200.000000pt" viewBox="0 0 1200.000000 1200.000000"
 preserveAspectRatio="xMidYMid meet">

<g transform="translate(0.000000,1200.000000) scale(0.100000,-0.100000)"
fill="#000000" stroke="none">
<path d="M7360 11647 c-3 -3 -50 -10 -105 -16 -217 -23 -266 -33 -485 -98 -47
-14 -94 -29 -105 -33 -32 -13 -57 -21 -114 -36 -29 -8 -66 -23 -80 -34 -15
-10 -40 -22 -57 -25 -43 -9 -154 -55 -196 -82 -21 -13 -40 -23 -43 -23 -13 0
-121 -54 -144 -72 -13 -10 -34 -18 -47 -18 -12 0 -26 -5 -29 -10 -4 -6 -30
-22 -58 -36 -29 -15 -73 -41 -98 -59 -26 -18 -60 -41 -75 -49 -73 -41 -216
-141 -239 -166 -10 -11 -23 -20 -29 -20 -6 0 -23 -10 -38 -23 -59 -49 -87 -71
-108 -82 -19 -10 -257 -231 -323 -300 -103 -108 -131 -139 -191 -215 -94 -121
-92 -118 -142 -195 -25 -38 -61 -101 -79 -138 -18 -37 -37 -73 -42 -80 -5 -7
-16 -30 -25 -52 -9 -22 -28 -68 -42 -102 -23 -53 -25 -68 -17 -98 11 -40 21
-29 -114 -118 -44 -29 -108 -74 -142 -100 -33 -26 -65 -47 -70 -47 -4 0 -20
-11 -34 -23 -13 -13 -30 -26 -36 -28 -12 -5 -106 -86 -171 -149 -26 -25 -85
-90 -131 -145 -46 -55 -92 -109 -102 -120 -88 -97 -179 -220 -179 -242 0 -4
-16 -25 -35 -46 -19 -21 -35 -45 -35 -54 0 -8 -6 -27 -14 -41 -40 -76 -75
-152 -90 -199 -10 -29 -22 -55 -27 -58 -5 -4 -9 -13 -9 -22 0 -8 -6 -29 -14
-46 -16 -37 -40 -107 -41 -122 -1 -5 -5 -21 -9 -33 -4 -13 -9 -34 -11 -45 -1
-12 -9 -49 -18 -82 -27 -98 -45 -186 -52 -250 -6 -55 -18 -279 -16 -315 3 -81
12 -176 21 -225 6 -33 13 -81 15 -108 1 -26 8 -53 13 -60 6 -7 17 -39 25 -72
21 -83 52 -167 93 -247 l35 -67 -43 -43 c-78 -78 -132 -171 -143 -245 -6 -46
-10 -53 -38 -63 -76 -28 -115 -50 -164 -95 -29 -26 -53 -51 -53 -57 0 -5 -9
-21 -20 -35 -27 -35 -26 -63 3 -63 14 0 31 13 46 36 37 53 126 129 168 142 31
10 38 9 49 -6 8 -9 14 -27 14 -39 0 -12 6 -34 14 -50 7 -15 22 -45 31 -66 l18
-37 -29 -28 c-76 -70 -120 -160 -119 -242 0 -49 2 -55 22 -58 18 -3 24 4 31
35 6 21 10 45 10 53 -1 30 54 128 84 150 30 22 32 23 42 5 6 -10 25 -33 41
-51 17 -17 42 -45 57 -62 39 -43 320 -179 408 -197 19 -4 41 -11 50 -15 8 -5
31 -15 50 -23 19 -8 51 -21 70 -30 19 -8 60 -23 90 -32 146 -46 324 -122 340
-146 3 -4 31 -17 63 -29 l57 -21 -18 -24 c-9 -13 -27 -28 -38 -34 -12 -5 -53
-47 -92 -94 -56 -67 -83 -90 -134 -115 -35 -18 -79 -35 -98 -38 -19 -4 -43
-11 -53 -16 -10 -5 -73 -10 -140 -10 -100 0 -129 3 -159 18 -80 42 -104 52
-129 58 -14 3 -43 17 -64 32 -37 25 -40 25 -66 10 -15 -9 -32 -16 -37 -16 -6
0 -39 25 -74 55 -77 65 -142 95 -223 101 -33 2 -86 6 -119 9 -111 9 -240 -50
-253 -117 -4 -21 -13 -30 -32 -34 -37 -8 -69 -37 -77 -70 -4 -16 -11 -34 -16
-41 -5 -7 -7 -20 -4 -31 4 -13 -6 -31 -33 -60 -29 -30 -42 -55 -50 -94 -13
-63 -1 -146 28 -186 10 -15 21 -36 25 -48 3 -11 16 -31 28 -43 11 -13 33 -45
47 -71 14 -26 60 -78 101 -116 41 -37 91 -83 110 -101 19 -18 44 -36 54 -39
11 -4 24 -10 30 -15 54 -42 87 -74 110 -108 16 -22 41 -46 57 -53 28 -13 49
-55 49 -100 0 -31 189 -210 255 -242 33 -16 81 -39 106 -52 26 -13 57 -24 69
-24 12 0 29 -4 39 -10 10 -5 33 -11 52 -14 19 -3 68 -12 109 -21 85 -18 275
-36 366 -35 l61 1 8 -43 c5 -24 9 -52 10 -63 1 -11 14 -54 29 -95 77 -214 76
-203 27 -295 -23 -42 -41 -83 -41 -91 0 -8 -6 -25 -14 -37 -19 -32 -57 -313
-47 -352 1 -5 5 -53 7 -105 5 -112 19 -202 44 -285 10 -33 31 -103 45 -155 15
-52 34 -107 41 -122 19 -37 19 -38 -25 -38 -21 0 -55 -7 -74 -15 -20 -8 -47
-15 -59 -15 -13 0 -45 -12 -73 -25 -27 -14 -56 -25 -63 -25 -7 0 -20 -4 -30
-9 -9 -5 -62 -30 -117 -56 -155 -72 -167 -78 -173 -94 -3 -9 -18 -28 -34 -43
-15 -15 -28 -32 -28 -39 0 -6 -8 -23 -19 -37 -21 -31 -61 -143 -61 -171 0 -11
-5 -23 -11 -27 -6 -3 -9 -19 -5 -35 3 -15 1 -31 -4 -34 -29 -18 3 -248 42
-304 48 -68 257 -189 357 -206 19 -3 42 -10 53 -16 21 -11 141 -21 258 -21
137 0 428 10 447 16 16 5 73 14 128 20 11 2 27 5 35 9 8 3 38 11 65 16 28 5
77 19 109 30 33 12 69 21 80 21 12 0 35 7 51 16 17 9 50 23 75 31 25 8 52 22
61 30 9 8 45 24 80 37 61 21 136 63 187 103 24 19 122 147 122 160 0 5 7 22
16 38 42 79 56 136 55 223 0 74 -4 96 -30 152 -16 36 -43 82 -60 104 -37 46
-39 65 -7 103 12 15 38 55 56 88 18 33 36 64 41 69 5 6 9 19 9 29 0 11 14 45
30 76 17 31 34 68 40 83 8 24 12 26 42 18 18 -5 65 -12 103 -15 129 -11 165
-29 165 -85 0 -11 9 -37 20 -58 53 -96 71 -127 85 -141 47 -50 127 -125 147
-139 13 -8 42 -33 65 -55 23 -22 58 -49 77 -61 20 -11 73 -46 119 -77 45 -30
118 -70 162 -89 44 -18 92 -39 108 -47 27 -14 115 -34 151 -34 11 0 62 -11
114 -24 52 -14 103 -25 114 -25 16 0 19 -4 13 -22 -3 -13 -9 -39 -11 -58 -3
-19 -9 -39 -14 -45 -4 -5 -8 -21 -9 -35 -1 -48 -10 -146 -19 -205 -8 -56 -8
-142 1 -210 14 -104 165 -230 298 -250 13 -2 51 -8 84 -13 33 -6 67 -10 75
-11 8 0 47 -2 85 -4 87 -5 188 9 237 34 21 11 45 19 54 19 46 0 253 165 387
309 21 23 45 41 53 41 8 0 14 3 14 8 1 4 28 36 61 72 34 36 78 90 100 121 21
31 44 63 52 70 7 8 20 28 29 44 46 88 58 109 71 124 7 9 20 32 27 51 7 19 25
60 40 91 16 30 36 91 45 135 9 43 21 97 27 119 25 94 10 377 -22 409 -6 6 -10
19 -10 30 0 10 -12 35 -27 55 -38 51 -164 175 -191 190 -16 8 -20 16 -14 24
20 27 54 122 58 165 2 25 9 51 15 58 9 12 15 41 18 92 1 20 6 22 64 22 34 0
77 4 96 10 51 14 151 86 151 108 0 5 11 19 25 32 14 13 25 28 25 34 0 6 9 28
20 49 11 20 20 43 20 51 0 9 17 16 49 21 103 14 173 99 231 278 18 58 -7 182
-41 203 -6 3 -17 22 -25 40 -13 32 -13 35 18 80 30 42 33 52 32 117 -1 169
-125 287 -306 291 -52 1 -72 6 -90 22 -13 12 -50 36 -83 55 -56 32 -66 34
-145 33 -92 -1 -185 -30 -258 -79 -38 -26 -62 -32 -62 -15 0 5 -20 21 -45 36
-25 14 -45 30 -45 34 0 5 -15 13 -34 20 -18 6 -42 20 -51 30 -10 11 -26 20
-35 20 -10 0 -43 12 -74 26 -45 20 -56 30 -56 49 0 13 -4 27 -10 30 -5 3 -10
17 -10 29 0 13 -7 29 -15 36 -8 7 -15 18 -15 25 0 7 -11 20 -25 29 -13 9 -31
29 -39 44 -14 27 -169 152 -226 182 -54 29 -49 35 29 37 114 3 283 45 350 87
22 14 45 26 50 26 5 0 14 6 20 14 6 7 33 19 59 26 26 6 56 16 67 20 11 5 33
11 48 15 29 6 70 40 78 64 4 10 22 6 74 -16 39 -17 95 -36 125 -43 30 -7 65
-16 78 -21 13 -5 35 -9 50 -9 39 0 107 72 118 125 4 22 7 42 6 45 0 3 -3 17
-7 31 -5 20 -1 28 20 39 39 21 75 99 68 149 -5 37 -3 41 21 47 28 7 65 63 78
119 7 30 -9 69 -55 130 -12 17 -36 48 -52 70 -54 72 -227 225 -255 225 -5 0
-10 3 -10 8 0 4 -18 16 -40 26 -28 14 -43 29 -52 53 -9 26 -24 40 -55 54 -23
10 -46 19 -51 19 -5 0 -23 7 -38 15 -16 8 -36 15 -45 15 -9 0 -19 6 -22 14 -9
22 -44 43 -122 71 -61 22 -91 26 -230 30 -88 2 -245 7 -350 10 -171 4 -389 -5
-455 -21 -14 -3 -40 -8 -58 -10 -28 -3 -32 -1 -22 11 6 7 26 17 43 21 18 3 48
19 68 35 20 16 40 29 44 29 6 0 36 25 94 80 70 67 193 251 227 340 3 8 9 24
13 35 4 11 19 45 33 75 14 30 29 69 32 85 4 17 13 61 21 98 8 38 15 111 16
164 1 91 2 95 18 75 23 -31 65 -44 87 -28 30 22 10 164 -40 281 -7 17 -19 45
-26 63 -7 17 -16 32 -20 32 -4 0 -17 20 -29 44 -11 25 -25 47 -31 51 -10 6
-80 111 -80 120 0 3 21 3 48 0 53 -6 62 -1 79 37 17 38 10 50 -50 89 -28 18
-59 40 -68 49 -9 8 -42 31 -74 50 -39 24 -62 46 -72 68 -7 18 -20 35 -28 39
-8 3 -15 14 -15 24 0 20 -19 59 -33 70 -19 14 -79 200 -103 319 -9 41 -20 79
-25 84 -5 6 -9 21 -9 35 0 58 -87 223 -183 346 -21 28 -51 66 -65 85 -67 87
-181 180 -221 180 -10 0 -21 6 -24 13 -3 8 -27 21 -54 31 -26 9 -56 21 -65 27
-10 5 -25 9 -33 9 -26 0 -16 19 13 26 46 10 96 26 122 39 14 7 54 18 90 25 36
6 69 16 75 21 5 5 20 9 33 9 13 0 33 5 44 11 11 6 53 17 92 25 93 17 326 80
349 94 10 6 22 8 26 5 5 -2 27 2 50 10 23 8 45 15 49 15 14 2 57 12 72 17 8 3
26 6 40 8 14 1 39 7 55 13 43 15 123 35 267 66 37 8 85 22 105 32 21 9 56 25
78 35 22 10 53 21 70 25 16 4 54 22 85 39 30 18 66 36 80 40 32 10 104 50 150
84 19 14 42 31 52 36 61 36 178 109 204 128 31 22 76 50 121 75 13 7 23 17 23
23 0 5 6 9 13 9 8 0 23 8 35 18 48 40 61 51 118 92 66 49 174 155 218 214 16
22 47 55 68 74 21 19 38 38 38 42 0 8 23 35 84 100 13 14 29 36 36 50 7 14 20
34 29 45 10 11 24 38 33 60 114 292 109 273 109 379 2 126 -21 150 -161 176
-25 5 -65 14 -90 20 -49 12 -61 14 -200 35 -202 30 -506 39 -680 21 -41 -4
-86 -9 -100 -10 -40 -4 -94 -18 -105 -26 -5 -4 -33 -10 -62 -13 -29 -3 -65
-13 -82 -21 -16 -9 -42 -16 -57 -16 -14 0 -54 -9 -88 -20 -33 -11 -88 -29
-121 -40 -143 -46 -256 -89 -336 -128 -47 -23 -93 -42 -102 -42 -9 0 -19 -4
-22 -10 -3 -5 -13 -10 -21 -10 -8 0 -33 -12 -55 -26 -23 -14 -42 -24 -44 -22
-2 2 5 35 15 73 14 54 17 103 16 215 -3 174 -16 227 -71 288 -40 43 -40 44
-120 48 -44 3 -82 3 -85 1z m153 -108 c9 -12 19 -31 21 -43 18 -100 20 -136
15 -246 -11 -210 -48 -300 -137 -338 -28 -12 -64 -33 -80 -47 -16 -14 -35 -25
-42 -25 -7 0 -25 -10 -40 -22 -59 -48 -74 -58 -87 -58 -7 0 -25 -12 -40 -26
-31 -28 -119 -84 -170 -109 -18 -8 -39 -24 -45 -35 -7 -11 -18 -20 -24 -20 -6
0 -19 -9 -29 -20 -10 -11 -22 -20 -28 -20 -5 0 -31 -18 -57 -40 -26 -22 -51
-40 -54 -40 -3 0 -15 -8 -25 -17 -10 -10 -34 -31 -52 -46 -79 -66 -136 -120
-266 -248 -174 -172 -196 -195 -274 -298 -113 -148 -148 -199 -195 -287 -43
-82 -45 -87 -29 -110 8 -13 20 -24 25 -24 17 0 45 38 64 87 17 42 77 128 196
281 19 25 40 53 46 63 31 53 395 411 506 497 82 64 101 78 173 128 39 26 72
52 75 56 6 8 130 89 235 153 37 22 79 50 94 63 16 12 31 22 35 22 3 0 40 23
82 50 42 28 83 50 90 50 16 0 171 79 192 98 7 6 21 12 31 12 9 0 22 5 28 11
12 12 201 99 215 99 4 0 29 10 56 23 26 12 88 35 137 51 50 16 99 32 110 37
11 5 40 13 65 19 25 5 70 16 100 26 30 9 73 20 95 24 22 5 63 14 90 20 28 7
77 18 109 26 32 7 62 12 66 9 3 -2 35 0 71 5 65 10 290 13 344 5 17 -3 66 -7
110 -11 43 -3 88 -10 98 -16 10 -5 25 -7 34 -4 8 3 22 2 31 -3 10 -5 47 -12
83 -15 184 -16 283 -54 294 -112 6 -35 -11 -120 -29 -144 -7 -8 -18 -37 -25
-65 -6 -27 -18 -63 -26 -80 -8 -16 -21 -46 -29 -65 -30 -66 -119 -188 -196
-269 -30 -31 -71 -77 -90 -101 -57 -72 -101 -113 -253 -240 -27 -22 -54 -40
-61 -40 -8 0 -19 -7 -26 -15 -6 -8 -58 -42 -113 -77 -56 -34 -118 -75 -137
-90 -19 -15 -38 -28 -43 -28 -4 0 -31 -18 -60 -39 -29 -21 -70 -48 -92 -58
-22 -11 -86 -43 -141 -71 -56 -29 -105 -52 -109 -52 -3 0 -25 -8 -48 -19 -110
-49 -141 -61 -156 -61 -9 0 -21 -4 -26 -9 -6 -5 -57 -19 -115 -31 -58 -11
-130 -28 -160 -36 -30 -9 -77 -22 -105 -30 -27 -7 -72 -20 -100 -28 -44 -12
-108 -27 -140 -30 -5 -1 -41 -12 -80 -25 -38 -12 -99 -29 -135 -36 -103 -22
-249 -60 -320 -83 -108 -35 -168 -52 -183 -52 -8 0 -39 -11 -69 -25 -29 -14
-61 -25 -72 -25 -17 0 -102 -33 -166 -64 -30 -14 -37 -47 -15 -69 12 -13 29
-15 78 -10 71 6 181 -19 269 -63 29 -14 63 -29 75 -33 34 -9 162 -127 213
-195 80 -106 120 -167 120 -182 0 -6 7 -17 15 -24 8 -7 15 -20 15 -29 0 -10
11 -39 23 -67 26 -54 43 -109 59 -194 6 -30 14 -59 19 -65 5 -5 9 -19 9 -31 0
-25 54 -176 76 -214 8 -14 22 -40 30 -59 28 -62 115 -169 152 -187 32 -15 34
-17 16 -27 -10 -6 -22 -15 -26 -21 -12 -19 4 -100 26 -127 12 -14 34 -46 50
-72 17 -26 33 -47 38 -47 4 0 15 -17 24 -37 10 -21 35 -64 57 -96 35 -53 73
-157 57 -157 -3 0 -15 7 -26 15 -24 18 -58 19 -72 3 -6 -9 -7 -50 -2 -118 7
-101 -2 -253 -19 -295 -4 -11 -22 -65 -41 -120 -30 -93 -112 -256 -131 -263
-5 -2 -9 -8 -9 -14 0 -37 -247 -278 -286 -278 -3 0 -25 -9 -50 -20 -24 -11
-54 -25 -66 -30 -13 -6 -30 -14 -38 -19 -83 -51 -166 -81 -285 -101 -146 -26
-177 -34 -250 -69 -191 -90 -214 -101 -224 -101 -5 0 -24 -13 -42 -29 -25 -24
-31 -35 -26 -58 9 -48 -70 -171 -134 -208 -24 -15 -79 -41 -199 -96 -36 -17
-72 -35 -80 -40 -32 -19 -83 -39 -101 -39 -10 0 -20 -4 -23 -9 -3 -4 -27 -14
-53 -20 -58 -15 -232 -68 -288 -87 -23 -8 -51 -14 -63 -14 -12 0 -22 -4 -22
-10 0 -5 -14 -10 -31 -10 -27 0 -124 -27 -184 -51 -54 -21 -270 -42 -320 -30
-22 5 -51 9 -65 9 -45 0 -83 13 -116 40 -18 15 -33 32 -33 39 -2 22 -126 107
-186 128 -33 12 -73 29 -90 40 -63 39 -75 45 -86 45 -6 0 -22 9 -36 20 -14 11
-40 22 -59 26 -18 3 -38 12 -45 20 -6 8 -19 14 -29 14 -9 0 -31 7 -48 16 -17
8 -48 18 -69 21 -21 3 -45 11 -53 18 -8 8 -44 23 -80 35 -36 12 -69 25 -75 29
-5 5 -32 13 -58 20 -27 6 -78 25 -115 42 -185 83 -241 120 -303 199 -45 57
-51 50 65 85 56 17 71 26 71 41 0 28 -43 29 -125 3 -39 -12 -72 -20 -73 -18
-11 14 -57 119 -62 141 -7 26 -6 27 22 19 15 -5 49 -18 76 -30 51 -22 77 -19
77 8 0 20 -50 49 -127 76 -48 17 -52 21 -47 44 10 46 36 116 50 132 8 8 14 20
14 25 0 20 63 74 99 85 50 15 59 44 30 96 -11 21 -30 47 -40 59 -10 11 -19 30
-19 41 0 11 -7 26 -15 33 -18 15 -21 65 -2 57 69 -30 70 -31 81 -98 14 -82
107 -141 243 -155 57 -6 63 -9 57 -26 -4 -14 0 -21 13 -24 15 -4 18 -14 16
-52 -2 -55 24 -201 39 -219 6 -7 7 -13 4 -13 -18 0 32 -59 81 -97 49 -37 62
-42 130 -49 60 -5 82 -3 110 10 18 9 37 16 42 16 5 0 28 -18 52 -41 24 -22 60
-49 79 -59 19 -10 59 -34 89 -54 29 -20 65 -39 80 -42 14 -4 31 -10 36 -14 6
-4 26 -5 47 -3 49 7 116 76 163 168 19 38 35 74 35 80 0 6 30 26 68 44 102 49
108 54 176 119 60 57 65 60 85 46 28 -20 222 -28 247 -9 10 6 15 19 11 27 -4
12 -30 17 -114 21 -60 3 -126 12 -148 21 -75 28 -135 64 -161 95 -31 38 -64
42 -64 8 0 -25 60 -86 111 -113 16 -8 29 -17 29 -21 0 -7 -78 -83 -86 -83 -3
0 -14 -9 -26 -20 -12 -11 -28 -20 -35 -20 -8 0 -28 -8 -46 -17 -105 -57 -246
-59 -364 -7 -17 8 -35 14 -40 14 -6 0 -31 16 -56 36 -49 38 -77 40 -77 5 0
-21 -69 -98 -113 -125 -44 -27 -123 -36 -171 -19 -105 36 -158 140 -152 293 3
49 11 101 21 124 46 108 137 201 250 257 98 48 159 61 290 61 99 0 119 -4 194
-47 30 -17 51 -9 51 19 0 16 -13 27 -57 47 -102 47 -146 51 -287 30 -69 -11
-134 -24 -145 -30 -11 -6 -24 -11 -29 -11 -10 0 -52 73 -52 91 0 28 -77 160
-118 202 -73 75 -111 91 -217 92 -65 0 -103 -5 -135 -18 -85 -35 -140 -121
-156 -244 -6 -45 -10 -53 -27 -53 -11 0 -31 10 -43 21 -26 24 -54 19 -54 -8 0
-19 79 -73 105 -73 17 0 21 -35 5 -45 -5 -3 -28 4 -51 15 -22 12 -44 19 -47
16 -20 -20 -78 211 -87 344 -14 205 -15 275 -5 387 11 122 47 317 69 376 6 15
10 31 9 35 -3 9 39 147 57 187 7 17 18 46 25 65 15 45 23 62 54 132 14 31 26
63 26 71 0 8 11 31 25 51 14 20 25 41 25 46 0 6 4 10 8 10 5 0 22 26 37 58 16
31 44 75 62 97 18 22 43 53 56 68 12 16 37 43 55 61 17 18 32 37 32 44 0 6 8
17 18 24 9 7 43 46 76 86 66 82 212 219 285 268 27 19 53 38 56 44 4 6 17 15
28 21 12 5 42 25 67 44 25 19 55 39 67 44 11 6 24 15 28 20 6 12 96 72 150
102 17 9 66 31 110 49 144 58 154 63 160 79 3 8 -1 21 -9 29 -18 18 -96 3
-174 -34 -30 -14 -55 -24 -57 -22 -12 13 0 94 16 104 5 3 9 12 9 20 0 8 11 31
24 52 12 20 27 48 31 62 4 14 13 32 21 40 7 9 25 38 40 65 87 166 231 343 468
578 59 59 112 107 117 107 4 0 13 9 19 20 6 11 21 25 34 32 23 12 81 59 150
121 17 15 35 27 40 27 5 0 27 15 50 33 23 18 73 53 111 78 39 25 83 54 99 65
16 10 37 24 47 30 10 6 27 18 36 26 28 24 501 258 522 258 10 0 24 7 31 15 7
8 22 15 34 15 12 0 30 6 41 14 11 8 40 20 65 27 25 7 50 16 56 21 6 4 47 17
90 28 43 11 88 24 99 29 11 5 47 17 80 26 33 10 80 23 105 31 25 7 81 18 125
24 44 5 115 16 158 23 42 6 114 11 160 9 69 -2 85 -5 100 -23z m-3690 -4446
c45 -31 95 -99 124 -168 36 -84 63 -153 63 -159 0 -3 -5 -6 -11 -6 -5 0 -33
-18 -62 -39 l-51 -39 -17 39 c-10 21 -24 40 -31 40 -7 1 -20 3 -28 4 -8 1 -27
3 -42 4 -38 2 -35 18 6 38 56 26 68 73 40 153 -18 51 -80 150 -95 150 -5 0 -9
5 -9 11 0 18 71 0 113 -28z m-273 -203 c24 -24 39 -25 46 -5 6 16 60 21 80 7
6 -4 14 -33 18 -65 6 -55 -4 -96 -43 -167 -14 -26 -58 -23 -97 6 -57 44 -87
99 -88 163 -1 49 2 56 24 68 33 17 37 16 60 -7z m170 -450 c0 -5 -4 -10 -10
-10 -5 0 -10 5 -10 10 0 6 5 10 10 10 6 0 10 -4 10 -10z m4510 -494 c115 -1
145 -5 201 -26 l67 -24 -5 -40 c-3 -23 -14 -67 -25 -100 -10 -32 -17 -61 -14
-63 3 -3 1 -13 -4 -22 -5 -9 -11 -37 -14 -61 -3 -25 -17 -110 -30 -190 -29
-164 -53 -353 -66 -514 -6 -80 -13 -113 -27 -128 -23 -25 -149 -86 -193 -92
-19 -3 -66 -11 -105 -18 -45 -9 -100 -11 -155 -6 -66 5 -90 3 -107 -8 -22 -14
-26 -11 -76 38 -29 29 -67 73 -84 99 -35 51 -93 166 -93 184 0 7 -8 23 -19 36
-10 13 -22 35 -26 49 -4 14 -15 36 -24 50 -19 29 -37 74 -62 160 -10 36 -23
74 -28 85 -5 11 -12 34 -14 50 -3 17 -14 66 -25 110 -35 135 -55 267 -53 335
1 35 3 65 4 67 2 1 36 4 77 7 41 3 107 10 145 16 103 15 147 16 395 12 124 -2
286 -5 360 -6z m590 -282 c8 -8 28 -21 46 -29 41 -17 205 -178 229 -225 9 -19
26 -45 37 -57 33 -35 8 -113 -36 -113 -3 0 -25 19 -49 43 -63 60 -70 64 -117
77 -53 14 -75 -1 -64 -43 5 -22 12 -27 38 -27 24 0 42 -11 78 -49 26 -27 52
-61 58 -75 16 -44 12 -91 -10 -111 -19 -17 -21 -16 -74 29 -56 48 -94 58 -116
31 -17 -20 -3 -54 26 -61 33 -8 114 -105 114 -135 -1 -82 -38 -97 -150 -61
-41 14 -89 31 -106 39 -30 14 -55 21 -83 22 -8 1 -11 7 -6 19 7 19 47 211 70
342 9 47 18 92 21 100 3 8 10 40 14 70 5 30 13 73 19 95 8 33 16 80 20 128 2
13 28 8 41 -9z m-5707 -609 c32 -3 71 -11 85 -19 15 -8 41 -19 57 -26 29 -10
71 -44 108 -87 17 -19 17 -22 -7 -69 -14 -27 -27 -56 -30 -64 -4 -8 -15 -29
-25 -46 -10 -17 -22 -45 -26 -62 -3 -18 -10 -34 -15 -37 -17 -11 -65 109 -70
175 -4 56 -8 65 -26 68 -33 5 -46 -22 -47 -92 0 -74 29 -145 75 -179 22 -17
30 -18 43 -7 17 14 19 8 6 -18 -4 -9 -20 -41 -35 -69 -14 -29 -26 -62 -26 -72
0 -11 -4 -22 -9 -25 -4 -3 -14 -26 -21 -51 -7 -25 -17 -48 -21 -51 -5 -3 -9
-13 -9 -22 0 -21 -72 -171 -82 -171 -12 -1 -98 64 -163 124 -33 30 -74 67 -91
82 -17 16 -38 42 -47 58 -8 17 -24 39 -36 49 -12 11 -21 23 -21 28 0 5 -11 25
-24 46 -24 37 -42 108 -37 147 7 59 43 96 55 58 13 -39 109 -139 142 -147 27
-7 64 8 64 26 0 6 -26 35 -58 63 -58 53 -112 140 -112 182 0 32 21 73 38 73 8
0 39 -22 69 -50 62 -57 104 -66 124 -28 10 18 8 24 -11 40 -12 10 -28 18 -35
18 -7 0 -25 16 -39 35 -30 39 -29 81 1 99 54 33 89 35 256 21z m1173 -172
c-58 -386 -86 -878 -64 -1153 6 -69 11 -147 12 -175 l1 -50 -145 0 c-90 1
-159 5 -182 13 -20 7 -56 14 -80 14 -23 1 -48 6 -55 11 -7 5 -45 15 -85 24
-40 8 -96 26 -124 39 -28 13 -55 24 -60 24 -17 0 -117 75 -153 114 -20 21 -46
49 -58 62 -13 14 -28 34 -34 46 -14 26 -15 174 0 191 5 7 14 31 20 52 12 52
30 103 47 138 8 16 14 36 14 45 0 9 7 26 15 36 8 11 15 28 15 37 0 18 6 30 84
186 25 51 46 99 46 106 0 8 9 22 20 32 11 10 20 22 20 26 0 7 75 136 86 148 2
2 32 -8 68 -23 60 -26 70 -27 192 -23 145 4 225 24 334 81 36 19 67 34 68 35
2 1 1 -16 -2 -36z m4671 -927 c63 -13 99 -35 134 -80 19 -24 27 -26 98 -26
104 0 161 -20 204 -73 67 -82 72 -149 18 -224 -50 -69 -50 -82 10 -163 14 -19
33 -56 42 -81 16 -41 16 -49 2 -75 -8 -16 -15 -37 -15 -47 0 -26 -44 -108 -74
-138 -18 -18 -42 -28 -75 -33 -86 -11 -113 -25 -110 -55 2 -26 -5 -44 -44
-117 -58 -106 -99 -134 -199 -134 l-60 0 6 33 c4 17 9 59 11 92 2 33 7 94 10
135 6 65 -4 229 -21 370 -6 47 -29 131 -65 235 -11 33 -23 73 -26 88 -3 16
-12 31 -19 34 -8 3 -14 13 -14 22 0 9 -23 43 -52 75 -50 56 -51 59 -37 84 17
30 118 74 209 90 3 1 33 -5 67 -12z m-124 -1847 c71 -75 86 -95 81 -113 -4
-11 -6 -38 -6 -58 3 -66 -71 -343 -105 -393 -7 -11 -13 -27 -13 -36 0 -9 -7
-22 -15 -29 -8 -7 -15 -20 -15 -29 -1 -9 -9 -30 -18 -47 -9 -17 -30 -56 -46
-85 -16 -30 -48 -86 -72 -126 -24 -39 -44 -79 -44 -88 0 -8 -7 -18 -15 -21 -8
-4 -15 -13 -15 -21 0 -7 -12 -26 -27 -41 -16 -15 -40 -45 -54 -67 -15 -22 -43
-58 -63 -79 -20 -22 -36 -42 -36 -46 0 -3 -13 -16 -29 -28 l-29 -21 -23 46
c-12 26 -30 54 -38 63 -9 8 -35 37 -57 63 -47 53 -149 127 -177 127 -10 0 -28
7 -40 14 -41 28 -139 46 -242 46 -98 0 -209 -15 -230 -31 -14 -10 -85 -23 -85
-15 0 4 7 23 15 43 8 19 15 43 15 52 1 34 34 58 90 65 30 4 64 9 75 11 62 12
83 17 107 26 22 9 30 8 43 -5 9 -9 25 -16 35 -16 10 0 21 -4 24 -9 3 -4 27
-11 53 -14 27 -3 89 -14 138 -25 50 -11 112 -20 139 -21 26 -1 52 -4 57 -6 4
-3 38 2 74 11 53 14 71 23 92 50 21 28 25 42 20 74 -5 38 -40 89 -61 90 -5 0
-17 6 -25 14 -21 17 -112 46 -148 46 -27 0 -27 0 -8 19 18 18 27 19 105 10
111 -14 142 -12 219 8 71 19 101 51 101 109 0 50 -71 104 -136 104 -32 0 -30
6 28 72 133 151 160 194 218 341 14 37 28 57 39 57 9 0 55 -41 104 -91z m142
-396 c-7 -132 -35 -264 -73 -346 -95 -203 -102 -217 -164 -298 -16 -20 -28
-41 -28 -46 0 -6 -7 -13 -15 -17 -8 -3 -15 -12 -15 -19 0 -12 -28 -45 -113
-137 -45 -48 -213 -206 -276 -260 -41 -35 -110 -83 -154 -107 -84 -45 -137
-59 -78 -20 97 63 140 97 225 177 135 126 154 145 181 188 15 23 31 42 36 42
4 0 15 15 24 34 9 19 23 37 31 40 8 3 14 10 14 17 0 6 15 29 34 52 18 23 51
74 71 112 21 39 56 99 77 134 21 34 38 65 38 68 0 3 13 33 28 67 56 120 72
157 72 167 0 6 6 25 14 42 23 52 66 193 66 216 0 11 3 21 6 21 3 0 3 -57 -1
-127z m-4503 -100 c14 -32 36 -83 48 -113 13 -30 31 -73 40 -95 57 -129 65
-152 62 -172 -4 -25 -22 -29 -55 -12 -28 14 -77 60 -77 71 0 5 -20 39 -44 76
-24 37 -54 88 -66 114 -12 26 -28 52 -36 59 -8 6 -14 19 -14 28 0 10 -7 26
-15 37 -35 46 -17 60 80 63 l50 1 27 -57z m3958 42 c48 -6 70 -20 70 -42 0
-19 -56 -39 -105 -37 -22 0 -59 2 -82 3 -24 0 -43 5 -43 9 0 5 16 25 36 45 25
25 44 35 58 32 12 -2 41 -6 66 -10z m-3804 -10 c5 -1 16 -22 24 -46 7 -24 28
-69 47 -100 18 -31 33 -62 33 -68 0 -6 4 -11 10 -11 5 0 24 -27 40 -61 82
-162 189 -208 275 -119 25 26 28 37 28 97 1 68 0 71 -70 213 -2 3 132 5 297 5
l299 0 27 -35 c35 -46 64 -115 64 -150 0 -35 -9 -60 -21 -60 -5 0 -39 -25 -75
-56 -37 -31 -85 -64 -108 -75 -22 -10 -56 -28 -73 -39 -18 -10 -61 -33 -95
-51 -35 -17 -75 -37 -90 -45 -16 -8 -67 -28 -115 -45 -49 -16 -97 -34 -108
-39 -27 -13 -182 -50 -225 -55 -19 -2 -67 -8 -105 -13 -39 -5 -122 -10 -184
-11 l-112 -2 5 43 c12 84 -22 319 -54 375 -5 10 -19 42 -31 71 -12 29 -30 57
-40 63 -11 5 -19 16 -19 24 0 21 -64 77 -123 107 -31 16 -46 28 -37 31 8 2 31
10 50 16 79 29 75 30 116 -55 20 -44 43 -87 51 -96 9 -9 25 -36 38 -60 69
-133 132 -216 188 -247 42 -23 72 -26 113 -11 71 27 74 104 9 238 -25 51 -48
104 -51 117 -3 14 -10 28 -15 31 -5 3 -9 15 -9 27 0 13 -6 31 -14 42 -7 11
-16 30 -20 42 -7 20 -4 22 31 17 21 -3 43 -7 49 -9z m205 -56 c40 -8 65 -19
82 -37 41 -44 85 -138 93 -198 5 -47 4 -57 -12 -69 -25 -19 -64 -19 -64 -1 0
8 -9 17 -20 21 -19 6 -34 27 -66 95 -9 19 -22 42 -29 50 -17 19 -62 101 -75
136 -10 25 -9 26 12 20 13 -4 48 -11 79 -17z m-796 -70 c60 -16 128 -66 161
-118 16 -25 36 -53 44 -61 8 -8 21 -35 29 -60 7 -25 19 -63 26 -85 18 -55 30
-302 15 -320 -12 -14 -168 -11 -205 5 -11 5 -31 11 -45 14 -14 3 -38 8 -55 11
-77 16 -258 112 -324 171 -29 25 -32 33 -28 69 7 58 22 109 46 155 12 22 21
47 21 56 0 17 116 134 134 134 6 1 29 9 51 20 46 22 74 24 130 9z m4095 -104
c63 -8 176 -58 190 -84 7 -14 4 -23 -13 -38 -17 -15 -39 -20 -105 -22 -46 -1
-89 2 -95 8 -11 8 -92 27 -201 46 l-40 7 85 48 c74 43 89 48 124 43 22 -4 47
-7 55 -8z m-2430 -202 c0 -7 -57 -121 -85 -171 -24 -45 -90 -103 -137 -124
-27 -11 -48 -24 -48 -28 0 -4 -12 -11 -27 -15 -16 -3 -60 -22 -100 -41 -40
-19 -79 -34 -86 -34 -8 0 -20 -6 -26 -14 -6 -8 -24 -16 -39 -20 -93 -19 -141
-32 -154 -43 -8 -7 -41 -15 -74 -19 -32 -3 -74 -12 -92 -20 -18 -7 -83 -16
-145 -19 -62 -3 -152 -8 -202 -11 -140 -8 -337 -10 -341 -3 -2 3 -28 9 -58 13
-31 3 -66 10 -78 15 -13 5 -50 16 -83 26 -85 25 -123 43 -182 87 -60 44 -73
63 -90 133 -18 73 -17 82 5 62 10 -10 26 -17 35 -17 9 0 17 -4 17 -10 0 -10
124 -72 170 -85 14 -4 34 -13 45 -20 47 -29 196 -57 318 -58 176 -3 377 5 417
15 19 5 49 9 67 8 17 0 51 4 75 10 23 6 62 12 85 14 24 2 49 8 55 13 7 6 28
13 46 17 19 3 48 12 65 20 18 9 68 27 112 42 44 15 87 33 96 40 8 8 22 14 29
14 15 0 187 85 210 104 8 7 35 23 59 35 25 13 63 38 85 57 38 33 56 41 56 27z
m2221 -180 c26 -12 53 -23 60 -23 50 0 198 -135 245 -224 30 -57 26 -86 -13
-112 -15 -9 -42 -32 -59 -51 -17 -18 -37 -33 -44 -33 -6 0 -19 -9 -29 -21 -23
-28 -96 -70 -226 -130 -91 -42 -324 10 -416 93 -56 50 -73 145 -55 313 3 28 5
64 6 82 0 60 78 105 220 126 128 19 250 11 311 -20z"/>
<path d="M9319 11145 c-2 -2 -51 -6 -109 -9 -164 -9 -234 -17 -244 -27 -6 -5
-23 -9 -38 -9 -54 0 -306 -88 -400 -140 -10 -6 -25 -10 -33 -10 -9 0 -18 -7
-21 -15 -4 -8 -14 -15 -24 -15 -10 0 -23 -7 -30 -15 -7 -8 -19 -15 -27 -15 -8
0 -56 -27 -106 -60 -51 -33 -97 -60 -103 -60 -7 0 -14 -6 -17 -14 -3 -7 -23
-23 -46 -34 -22 -12 -48 -28 -58 -37 -45 -39 -145 -116 -211 -162 -65 -46
-131 -100 -227 -185 -45 -41 -296 -257 -353 -305 -27 -23 -66 -53 -86 -66 -19
-14 -57 -43 -83 -64 -27 -22 -55 -43 -63 -46 -8 -4 -33 -21 -55 -37 -22 -17
-51 -38 -65 -48 -14 -9 -31 -25 -38 -34 -7 -10 -19 -18 -25 -18 -17 0 -114
-65 -157 -105 -19 -18 -57 -45 -85 -60 -27 -16 -58 -35 -68 -43 -19 -16 -26
-21 -117 -70 -130 -70 -125 -66 -128 -105 -4 -42 5 -45 65 -23 21 8 56 17 78
21 143 24 343 67 390 85 117 43 237 81 268 86 16 2 33 7 38 10 6 3 43 14 82
25 40 10 113 30 162 44 50 13 108 29 130 34 63 16 285 96 341 125 29 14 57 26
63 26 6 0 35 11 65 25 30 14 58 25 62 25 4 0 40 15 78 34 39 19 89 39 111 46
22 7 69 28 105 47 36 18 70 33 77 33 14 0 160 75 220 113 24 15 45 27 49 27 3
0 16 8 29 18 12 9 33 24 45 32 12 8 52 38 87 65 36 28 73 55 82 60 76 47 368
320 471 441 64 75 130 165 130 178 0 7 7 19 15 26 8 7 15 19 15 26 0 8 12 37
28 64 26 50 27 51 8 65 -11 8 -36 17 -55 21 -20 3 -45 9 -56 14 -20 9 -160 21
-166 15z"/>
<path d="M5045 8104 c-5 -1 -22 -5 -37 -8 -44 -10 -123 -80 -142 -126 -17 -43
-9 -80 18 -80 18 0 39 27 31 39 -13 22 26 71 78 98 45 24 63 27 139 26 53 0
93 -5 102 -12 20 -17 56 -4 56 19 0 20 -7 23 -90 39 -49 10 -126 13 -155 5z"/>
<path d="M3570 7849 c-62 -10 -121 -41 -159 -84 -36 -41 -38 -51 -13 -64 21
-11 36 -4 45 22 4 9 17 22 29 27 13 6 30 14 38 19 57 36 110 36 170 1 28 -16
58 -30 66 -30 27 0 11 41 -27 72 -44 36 -89 46 -149 37z"/>
<path d="M5150 7483 c-72 -12 -127 -38 -170 -82 -80 -82 -90 -97 -117 -167
-35 -93 -45 -301 -18 -355 25 -48 44 -68 84 -85 20 -9 46 -21 58 -26 11 -6 25
-8 30 -5 4 3 7 -13 5 -35 -4 -37 -3 -40 17 -33 13 4 21 2 21 -5 0 -6 5 -8 10
-5 6 3 10 16 10 27 0 22 0 22 18 2 11 -11 21 -26 25 -34 3 -8 4 0 4 17 -1 18
-6 31 -12 29 -5 -2 -18 3 -27 12 -16 13 -20 12 -37 -9 -11 -13 -20 -18 -21
-11 0 6 6 12 13 12 9 0 9 2 -1 9 -10 6 -10 10 2 20 8 7 20 10 25 7 5 -4 12 -2
16 4 3 5 17 7 30 4 16 -4 30 0 40 10 9 9 27 17 41 18 46 2 49 3 55 11 3 5 22
9 41 10 20 1 34 5 32 9 -2 3 39 20 91 37 121 39 195 74 225 106 33 35 39 117
12 173 l-20 41 38 15 c44 17 110 83 110 109 0 26 -45 22 -63 -7 -13 -19 -92
-66 -112 -66 -2 0 -16 17 -29 37 l-26 37 29 12 c37 16 101 78 101 98 0 25 -44
19 -71 -10 -13 -15 -39 -33 -58 -41 -32 -13 -35 -13 -60 9 -49 45 -106 77
-156 89 -54 12 -145 18 -185 12z m252 -101 c62 -38 119 -113 205 -265 29 -51
7 -94 -67 -132 -27 -14 -52 -25 -55 -25 -3 0 -5 17 -5 38 0 60 -42 112 -92
112 -33 0 -34 6 -8 40 21 26 26 78 11 108 -5 9 -15 30 -22 46 -7 15 -33 49
-56 74 -24 25 -43 47 -43 48 0 8 104 -26 132 -44z m-210 -169 c38 -23 60 -75
52 -120 -10 -56 -60 -148 -95 -177 -29 -25 -37 -27 -83 -21 -43 6 -58 14 -93
51 -83 89 -108 194 -52 221 34 17 88 1 118 -33 l24 -27 19 44 c19 41 52 78 71
79 5 0 22 -8 39 -17z"/>
<path d="M6255 7110 c-100 -19 -145 -31 -210 -55 -38 -15 -84 -30 -100 -34
-29 -8 -43 -13 -95 -41 -14 -7 -56 -29 -95 -48 -115 -57 -229 -151 -241 -200
-11 -40 38 -73 50 -34 8 23 104 120 127 127 10 3 48 26 85 50 38 25 74 45 81
45 7 0 21 4 31 9 17 9 66 30 112 49 28 12 126 43 209 67 29 8 67 15 85 15 55
0 108 19 104 38 -4 20 -75 25 -143 12z"/>
<path d="M6317 6813 c-2 -1 -24 -5 -48 -7 -25 -2 -61 -7 -80 -10 -18 -4 -52
-8 -74 -11 -60 -7 -233 -64 -295 -98 -30 -17 -68 -37 -83 -45 -40 -20 -98 -83
-95 -101 5 -25 37 -25 63 1 13 12 30 28 38 35 28 22 172 93 189 93 9 0 19 4
22 9 3 5 30 14 58 21 29 6 60 14 68 17 17 7 7 5 175 28 72 9 179 18 239 19
120 1 146 14 82 41 -26 11 -68 15 -146 14 -60 -1 -111 -4 -113 -6z"/>
<path d="M5360 6730 c0 -5 5 -10 10 -10 6 0 10 5 10 10 0 6 -4 10 -10 10 -5 0
-10 -4 -10 -10z"/>
<path d="M4140 6688 c-19 -5 -58 -30 -87 -54 -80 -69 -85 -137 -13 -205 91
-86 228 -121 314 -80 79 39 125 119 126 220 0 53 -33 97 -87 115 -53 18 -197
20 -253 4z"/>
<path d="M5160 6685 c-11 -13 -10 -15 4 -9 9 3 16 1 16 -5 0 -6 7 -11 15 -11
8 0 15 5 15 11 0 5 -4 8 -9 4 -6 -3 -14 2 -19 10 -8 15 -10 15 -22 0z"/>
<path d="M3633 6453 c-17 -6 -17 -37 0 -30 8 3 14 -3 14 -14 1 -11 -2 -17 -8
-14 -5 4 -9 1 -9 -4 0 -6 -5 -11 -12 -11 -6 0 -9 3 -5 6 3 3 1 19 -5 35 -8 23
-13 27 -23 19 -7 -6 -16 -7 -19 -2 -4 8 -64 8 -70 0 -2 -1 0 -12 5 -23 5 -14
8 -15 9 -5 1 10 4 9 10 -5 8 -19 9 -19 9 3 1 19 6 22 32 20 38 -3 46 -15 25
-36 -10 -11 -16 -12 -16 -4 0 7 -8 12 -17 12 -16 0 -16 -2 -2 -15 9 -9 25 -17
37 -18 12 -1 22 -6 22 -12 1 -5 17 8 36 30 19 21 33 46 32 54 -3 17 -25 23
-45 14z"/>
<path d="M3677 6404 c7 -3 9 -13 6 -22 -4 -14 -3 -14 5 -2 12 16 7 30 -11 29
-9 0 -9 -2 0 -5z"/>
<path d="M3474 6371 c7 -11 56 -21 56 -11 0 4 -10 10 -22 14 -32 8 -40 7 -34
-3z"/>
</g>
</svg>
